<svg width="233" height="64" viewBox="0 0 233 64" fill="none" xmlns="http://www.w3.org/2000/svg">
<path d="M45.024 23.192C45.792 23.192 46.4747 23.0373 47.072 22.728C47.68 22.408 48.1547 21.976 48.496 21.432C48.848 20.8773 49.024 20.2533 49.024 19.56C49.024 18.8773 48.8427 18.2533 48.48 17.688C48.1173 17.1227 47.6213 16.7013 46.992 16.424C47.4187 16.1573 47.7547 15.816 48 15.4C48.256 14.9733 48.384 14.4933 48.384 13.96C48.384 13.3627 48.2347 12.8347 47.936 12.376C47.648 11.9067 47.2533 11.544 46.752 11.288C46.2507 11.0213 45.6747 10.888 45.024 10.888C44.384 10.888 43.808 11.0267 43.296 11.304C42.7947 11.5707 42.3947 11.9333 42.096 12.392C41.7973 12.8507 41.648 13.3733 41.648 13.96C41.648 14.4507 41.7653 14.9147 42 15.352C42.2453 15.7893 42.5973 16.1467 43.056 16.424C42.4267 16.7013 41.9307 17.1227 41.568 17.688C41.2053 18.2533 41.024 18.8773 41.024 19.56C41.024 20.2533 41.1947 20.8773 41.536 21.432C41.888 21.976 42.3627 22.408 42.96 22.728C43.568 23.0373 44.256 23.192 45.024 23.192ZM45.024 15.928C44.4373 15.928 43.9413 15.7467 43.536 15.384C43.1307 15.0213 42.928 14.5467 42.928 13.96C42.928 13.3733 43.1307 12.904 43.536 12.552C43.9413 12.1893 44.4373 12.008 45.024 12.008C45.6107 12.008 46.1013 12.1893 46.496 12.552C46.9013 12.904 47.104 13.3733 47.104 13.96C47.104 14.5467 46.9013 15.0213 46.496 15.384C46.1013 15.7467 45.6107 15.928 45.024 15.928ZM45.024 22.072C44.2133 22.072 43.5573 21.8427 43.056 21.384C42.5547 20.9147 42.304 20.3067 42.304 19.56C42.304 18.8027 42.5547 18.1947 43.056 17.736C43.5573 17.2773 44.2133 17.048 45.024 17.048C45.8453 17.048 46.5013 17.2773 46.992 17.736C47.4933 18.1947 47.744 18.8027 47.744 19.56C47.744 20.3067 47.4933 20.9147 46.992 21.384C46.5013 21.8427 45.8453 22.072 45.024 22.072ZM55.0709 23.192C55.8389 23.192 56.5215 23.0373 57.1189 22.728C57.7269 22.408 58.2015 21.976 58.5429 21.432C58.8949 20.8773 59.0709 20.2533 59.0709 19.56C59.0709 18.8773 58.8895 18.2533 58.5269 17.688C58.1642 17.1227 57.6682 16.7013 57.0389 16.424C57.4655 16.1573 57.8015 15.816 58.0469 15.4C58.3029 14.9733 58.4309 14.4933 58.4309 13.96C58.4309 13.3627 58.2815 12.8347 57.9829 12.376C57.6949 11.9067 57.3002 11.544 56.7989 11.288C56.2975 11.0213 55.7215 10.888 55.0709 10.888C54.4309 10.888 53.8549 11.0267 53.3429 11.304C52.8415 11.5707 52.4415 11.9333 52.1429 12.392C51.8442 12.8507 51.6949 13.3733 51.6949 13.96C51.6949 14.4507 51.8122 14.9147 52.0469 15.352C52.2922 15.7893 52.6442 16.1467 53.1029 16.424C52.4735 16.7013 51.9775 17.1227 51.6149 17.688C51.2522 18.2533 51.0709 18.8773 51.0709 19.56C51.0709 20.2533 51.2415 20.8773 51.5829 21.432C51.9349 21.976 52.4095 22.408 53.0069 22.728C53.6149 23.0373 54.3029 23.192 55.0709 23.192ZM55.0709 15.928C54.4842 15.928 53.9882 15.7467 53.5829 15.384C53.1775 15.0213 52.9749 14.5467 52.9749 13.96C52.9749 13.3733 53.1775 12.904 53.5829 12.552C53.9882 12.1893 54.4842 12.008 55.0709 12.008C55.6575 12.008 56.1482 12.1893 56.5429 12.552C56.9482 12.904 57.1509 13.3733 57.1509 13.96C57.1509 14.5467 56.9482 15.0213 56.5429 15.384C56.1482 15.7467 55.6575 15.928 55.0709 15.928ZM55.0709 22.072C54.2602 22.072 53.6042 21.8427 53.1029 21.384C52.6015 20.9147 52.3509 20.3067 52.3509 19.56C52.3509 18.8027 52.6015 18.1947 53.1029 17.736C53.6042 17.2773 54.2602 17.048 55.0709 17.048C55.8922 17.048 56.5482 17.2773 57.0389 17.736C57.5402 18.1947 57.7909 18.8027 57.7909 19.56C57.7909 20.3067 57.5402 20.9147 57.0389 21.384C56.5482 21.8427 55.8922 22.072 55.0709 22.072ZM62.9898 23H64.2698V11.08H60.7498V12.2H62.9898V23ZM68.3513 23H69.8873L73.2473 18.536C74.1646 17.3093 74.6233 16.072 74.6233 14.824C74.6233 14.056 74.4579 13.3787 74.1273 12.792C73.7966 12.1947 73.3433 11.7307 72.7673 11.4C72.1913 11.0587 71.5299 10.888 70.7833 10.888C70.0579 10.888 69.4019 11.0533 68.8153 11.384C68.2393 11.7147 67.7806 12.1627 67.4393 12.728C67.1086 13.2933 66.9433 13.9387 66.9433 14.664C66.9433 15.4 67.1033 16.056 67.4233 16.632C67.7539 17.1973 68.1966 17.6453 68.7513 17.976C69.3059 18.296 69.9299 18.456 70.6233 18.456C70.9113 18.456 71.1779 18.4293 71.4233 18.376C71.6686 18.3227 71.8926 18.232 72.0953 18.104L68.3513 23ZM70.7833 17.304C70.2926 17.304 69.8499 17.192 69.4553 16.968C69.0713 16.7333 68.7673 16.4187 68.5433 16.024C68.3299 15.6187 68.2233 15.1653 68.2233 14.664C68.2233 14.152 68.3353 13.6987 68.5593 13.304C68.7833 12.8987 69.0873 12.584 69.4713 12.36C69.8553 12.1253 70.2926 12.008 70.7833 12.008C71.2739 12.008 71.7113 12.1253 72.0953 12.36C72.4793 12.584 72.7833 12.8987 73.0073 13.304C73.2313 13.6987 73.3433 14.152 73.3433 14.664C73.3433 15.1653 73.2313 15.6187 73.0073 16.024C72.7939 16.4187 72.4953 16.7333 72.1113 16.968C71.7273 17.192 71.2846 17.304 70.7833 17.304ZM85.3209 23.192C86.1529 23.192 86.9262 23.0427 87.6409 22.744C88.3662 22.4347 89.0009 22.008 89.5449 21.464C90.0889 20.9093 90.5155 20.2587 90.8249 19.512C91.1342 18.7547 91.2889 17.928 91.2889 17.032C91.2889 16.136 91.1342 15.3147 90.8249 14.568C90.5155 13.8213 90.0889 13.176 89.5449 12.632C89.0009 12.0773 88.3662 11.6507 87.6409 11.352C86.9262 11.0427 86.1529 10.888 85.3209 10.888C84.4889 10.888 83.7102 11.0373 82.9849 11.336C82.2702 11.6347 81.6409 12.0613 81.0969 12.616C80.5529 13.16 80.1262 13.8107 79.8169 14.568C79.5075 15.3147 79.3529 16.136 79.3529 17.032C79.3529 17.928 79.5075 18.7547 79.8169 19.512C80.1262 20.2587 80.5529 20.9093 81.0969 21.464C81.6409 22.008 82.2702 22.4347 82.9849 22.744C83.7102 23.0427 84.4889 23.192 85.3209 23.192ZM85.3209 21.992C84.4035 21.992 83.5929 21.768 82.8889 21.32C82.1849 20.872 81.6302 20.2747 81.2249 19.528C80.8302 18.7707 80.6329 17.9387 80.6329 17.032C80.6329 16.36 80.7449 15.7253 80.9689 15.128C81.2035 14.5307 81.5289 14.0027 81.9449 13.544C82.3609 13.0853 82.8515 12.728 83.4169 12.472C83.9929 12.216 84.6275 12.088 85.3209 12.088C86.0142 12.088 86.6435 12.216 87.2089 12.472C87.7849 12.728 88.2809 13.0853 88.6969 13.544C89.1129 14.0027 89.4329 14.5307 89.6569 15.128C89.8915 15.7253 90.0089 16.36 90.0089 17.032C90.0089 17.9387 89.8062 18.7707 89.4009 19.528C89.0062 20.2747 88.4569 20.872 87.7529 21.32C87.0489 21.768 86.2382 21.992 85.3209 21.992ZM93.5758 23H94.7758V17.896C94.7758 17.128 94.9891 16.5253 95.4158 16.088C95.8531 15.6507 96.3918 15.432 97.0318 15.432C97.6718 15.432 98.1998 15.6507 98.6158 16.088C99.0424 16.5147 99.2558 17.1173 99.2558 17.896V23H100.456V17.432C100.456 16.824 100.312 16.28 100.024 15.8C99.7464 15.3093 99.3624 14.9253 98.8718 14.648C98.3918 14.3707 97.8478 14.232 97.2398 14.232C96.7064 14.232 96.2264 14.344 95.7998 14.568C95.3731 14.792 95.0318 15.096 94.7758 15.48V10.888H93.5758V23ZM102.748 12.84H103.948V11.08H102.748V12.84ZM102.748 23H103.948V14.424H102.748V23ZM110.42 23.192C111.22 23.192 111.945 23 112.596 22.616C113.257 22.232 113.785 21.704 114.18 21.032C114.575 20.3493 114.772 19.5707 114.772 18.696C114.772 17.832 114.58 17.064 114.196 16.392C113.823 15.72 113.305 15.192 112.644 14.808C111.993 14.424 111.252 14.232 110.42 14.232C109.588 14.232 108.841 14.4293 108.18 14.824C107.529 15.208 107.012 15.736 106.628 16.408C106.244 17.08 106.052 17.8427 106.052 18.696C106.052 19.56 106.244 20.3333 106.628 21.016C107.023 21.688 107.551 22.2213 108.212 22.616C108.873 23 109.609 23.192 110.42 23.192ZM110.42 21.992C109.844 21.992 109.321 21.848 108.852 21.56C108.393 21.272 108.025 20.8773 107.748 20.376C107.471 19.8747 107.332 19.3147 107.332 18.696C107.332 18.0773 107.471 17.5227 107.748 17.032C108.025 16.5413 108.393 16.152 108.852 15.864C109.321 15.576 109.844 15.432 110.42 15.432C110.996 15.432 111.513 15.576 111.972 15.864C112.441 16.152 112.809 16.5413 113.076 17.032C113.353 17.5227 113.492 18.0773 113.492 18.696C113.492 19.3147 113.353 19.8747 113.076 20.376C112.809 20.8773 112.441 21.272 111.972 21.56C111.513 21.848 110.996 21.992 110.42 21.992ZM123.799 23.192C124.556 23.192 125.223 23.0533 125.799 22.776C126.386 22.4987 126.839 22.12 127.159 21.64C127.49 21.1493 127.655 20.584 127.655 19.944C127.655 19.1547 127.415 18.4987 126.935 17.976C126.455 17.4533 125.746 17.0533 124.807 16.776L122.919 16.216C122.279 16.024 121.804 15.736 121.495 15.352C121.186 14.9573 121.031 14.5147 121.031 14.024C121.031 13.416 121.244 12.936 121.671 12.584C122.098 12.2213 122.652 12.04 123.335 12.04C124.06 12.04 124.69 12.2213 125.223 12.584C125.767 12.9467 126.167 13.48 126.423 14.184L127.543 13.736C127.372 13.2133 127.09 12.7387 126.695 12.312C126.3 11.8853 125.815 11.544 125.239 11.288C124.674 11.0213 124.034 10.888 123.319 10.888C122.636 10.888 122.023 11.0267 121.479 11.304C120.946 11.5813 120.524 11.9653 120.215 12.456C119.906 12.936 119.751 13.4907 119.751 14.12C119.751 14.856 119.975 15.512 120.423 16.088C120.882 16.664 121.532 17.0747 122.375 17.32L124.519 17.96C125.116 18.1307 125.575 18.376 125.895 18.696C126.215 19.016 126.375 19.4693 126.375 20.056C126.375 20.6533 126.135 21.1333 125.655 21.496C125.186 21.8587 124.567 22.04 123.799 22.04C122.988 22.04 122.29 21.832 121.703 21.416C121.116 20.9893 120.684 20.3707 120.407 19.56L119.255 19.992C119.436 20.5787 119.74 21.1173 120.167 21.608C120.594 22.088 121.116 22.472 121.735 22.76C122.354 23.048 123.042 23.192 123.799 23.192ZM133.231 23.096C133.327 23.096 133.455 23.0907 133.615 23.08C133.775 23.0693 133.919 23.048 134.047 23.016V21.928C133.961 21.9387 133.86 21.9493 133.743 21.96C133.625 21.9707 133.524 21.976 133.439 21.976C132.905 21.976 132.537 21.8373 132.335 21.56C132.132 21.2827 132.031 20.9307 132.031 20.504V15.624H133.919V14.424H132.031V12.44H130.831V13.16C130.831 13.5227 130.724 13.8267 130.511 14.072C130.297 14.3067 130.009 14.424 129.647 14.424H129.247V15.624H130.831V20.504C130.831 21.336 131.039 21.976 131.455 22.424C131.871 22.872 132.463 23.096 133.231 23.096ZM136.57 23H137.85V21.24H136.57V23ZM147.643 23.192C148.4 23.192 149.067 23.0533 149.643 22.776C150.229 22.4987 150.683 22.12 151.003 21.64C151.333 21.1493 151.499 20.584 151.499 19.944C151.499 19.1547 151.259 18.4987 150.779 17.976C150.299 17.4533 149.589 17.0533 148.651 16.776L146.763 16.216C146.123 16.024 145.648 15.736 145.339 15.352C145.029 14.9573 144.875 14.5147 144.875 14.024C144.875 13.416 145.088 12.936 145.515 12.584C145.941 12.2213 146.496 12.04 147.179 12.04C147.904 12.04 148.533 12.2213 149.067 12.584C149.611 12.9467 150.011 13.48 150.267 14.184L151.387 13.736C151.216 13.2133 150.933 12.7387 150.539 12.312C150.144 11.8853 149.659 11.544 149.083 11.288C148.517 11.0213 147.877 10.888 147.163 10.888C146.48 10.888 145.867 11.0267 145.323 11.304C144.789 11.5813 144.368 11.9653 144.059 12.456C143.749 12.936 143.595 13.4907 143.595 14.12C143.595 14.856 143.819 15.512 144.267 16.088C144.725 16.664 145.376 17.0747 146.219 17.32L148.363 17.96C148.96 18.1307 149.419 18.376 149.739 18.696C150.059 19.016 150.219 19.4693 150.219 20.056C150.219 20.6533 149.979 21.1333 149.499 21.496C149.029 21.8587 148.411 22.04 147.643 22.04C146.832 22.04 146.133 21.832 145.547 21.416C144.96 20.9893 144.528 20.3707 144.251 19.56L143.099 19.992C143.28 20.5787 143.584 21.1173 144.011 21.608C144.437 22.088 144.96 22.472 145.579 22.76C146.197 23.048 146.885 23.192 147.643 23.192ZM157.811 23.192C158.611 23.192 159.336 23 159.987 22.616C160.648 22.232 161.176 21.704 161.571 21.032C161.965 20.3493 162.163 19.5707 162.163 18.696C162.163 17.832 161.971 17.064 161.587 16.392C161.213 15.72 160.696 15.192 160.035 14.808C159.384 14.424 158.643 14.232 157.811 14.232C156.979 14.232 156.232 14.4293 155.571 14.824C154.92 15.208 154.403 15.736 154.019 16.408C153.635 17.08 153.443 17.8427 153.443 18.696C153.443 19.56 153.635 20.3333 154.019 21.016C154.413 21.688 154.941 22.2213 155.603 22.616C156.264 23 157 23.192 157.811 23.192ZM157.811 21.992C157.235 21.992 156.712 21.848 156.243 21.56C155.784 21.272 155.416 20.8773 155.139 20.376C154.861 19.8747 154.723 19.3147 154.723 18.696C154.723 18.0773 154.861 17.5227 155.139 17.032C155.416 16.5413 155.784 16.152 156.243 15.864C156.712 15.576 157.235 15.432 157.811 15.432C158.387 15.432 158.904 15.576 159.363 15.864C159.832 16.152 160.2 16.5413 160.467 17.032C160.744 17.5227 160.883 18.0773 160.883 18.696C160.883 19.3147 160.744 19.8747 160.467 20.376C160.2 20.8773 159.832 21.272 159.363 21.56C158.904 21.848 158.387 21.992 157.811 21.992ZM167.319 23.192C167.852 23.192 168.332 23.08 168.759 22.856C169.186 22.632 169.527 22.328 169.783 21.944V23H170.983V14.424H169.783V19.528C169.783 20.296 169.57 20.8987 169.143 21.336C168.727 21.7733 168.188 21.992 167.527 21.992C166.876 21.992 166.343 21.784 165.927 21.368C165.511 20.9413 165.303 20.3813 165.303 19.688V14.424H164.103V19.832C164.103 20.4933 164.242 21.08 164.519 21.592C164.807 22.0933 165.196 22.488 165.687 22.776C166.178 23.0533 166.722 23.192 167.319 23.192ZM176.731 23.096C176.827 23.096 176.955 23.0907 177.115 23.08C177.275 23.0693 177.419 23.048 177.547 23.016V21.928C177.461 21.9387 177.36 21.9493 177.243 21.96C177.125 21.9707 177.024 21.976 176.939 21.976C176.405 21.976 176.037 21.8373 175.835 21.56C175.632 21.2827 175.531 20.9307 175.531 20.504V15.624H177.419V14.424H175.531V12.44H174.331V13.16C174.331 13.5227 174.224 13.8267 174.011 14.072C173.797 14.3067 173.509 14.424 173.147 14.424H172.747V15.624H174.331V20.504C174.331 21.336 174.539 21.976 174.955 22.424C175.371 22.872 175.963 23.096 176.731 23.096ZM179.654 23H180.854V17.896C180.854 17.128 181.067 16.5253 181.494 16.088C181.931 15.6507 182.47 15.432 183.11 15.432C183.75 15.432 184.278 15.6507 184.694 16.088C185.121 16.5147 185.334 17.1173 185.334 17.896V23H186.534V17.432C186.534 16.824 186.39 16.28 186.102 15.8C185.825 15.3093 185.441 14.9253 184.95 14.648C184.47 14.3707 183.926 14.232 183.318 14.232C182.785 14.232 182.305 14.344 181.878 14.568C181.451 14.792 181.11 15.096 180.854 15.48V10.888H179.654V23ZM197.161 23.192C197.918 23.192 198.622 23.064 199.273 22.808C199.934 22.5413 200.51 22.168 201.001 21.688C201.491 21.208 201.875 20.6427 202.153 19.992C202.43 19.3307 202.569 18.6107 202.569 17.832V16.84H197.161V17.96H201.289V18.04C201.289 18.808 201.107 19.4907 200.745 20.088C200.382 20.6747 199.886 21.1387 199.257 21.48C198.638 21.8213 197.939 21.992 197.161 21.992C196.286 21.992 195.507 21.7893 194.825 21.384C194.142 20.968 193.609 20.3867 193.225 19.64C192.841 18.8933 192.649 18.0293 192.649 17.048C192.649 16.056 192.841 15.192 193.225 14.456C193.609 13.7093 194.142 13.128 194.825 12.712C195.507 12.296 196.286 12.088 197.161 12.088C198.035 12.088 198.782 12.296 199.401 12.712C200.019 13.128 200.478 13.6987 200.777 14.424L201.929 13.864C201.737 13.3627 201.417 12.888 200.969 12.44C200.531 11.9813 199.987 11.608 199.337 11.32C198.697 11.032 197.971 10.888 197.161 10.888C196.318 10.888 195.545 11.0427 194.841 11.352C194.137 11.6507 193.523 12.0773 193.001 12.632C192.489 13.1867 192.089 13.8373 191.801 14.584C191.513 15.3307 191.368 16.152 191.368 17.048C191.368 17.944 191.513 18.7653 191.801 19.512C192.089 20.2587 192.489 20.9093 193.001 21.464C193.523 22.008 194.137 22.4347 194.841 22.744C195.545 23.0427 196.318 23.192 197.161 23.192ZM207.165 23.192C207.826 23.192 208.424 23.0587 208.957 22.792C209.49 22.5253 209.896 22.184 210.173 21.768V23H211.373V17.112C211.373 16.5467 211.234 16.0507 210.957 15.624C210.69 15.1867 210.312 14.8453 209.821 14.6C209.341 14.3547 208.786 14.232 208.157 14.232C207.677 14.232 207.213 14.3227 206.765 14.504C206.317 14.6747 205.917 14.9093 205.565 15.208C205.224 15.5067 204.973 15.8373 204.813 16.2L205.901 16.792C206.093 16.376 206.386 16.04 206.781 15.784C207.176 15.5173 207.634 15.384 208.157 15.384C208.754 15.384 209.24 15.544 209.613 15.864C209.986 16.184 210.173 16.6 210.173 17.112V17.56L207.069 18.072C206.12 18.232 205.426 18.5573 204.989 19.048C204.552 19.5387 204.333 20.1147 204.333 20.776C204.333 21.2453 204.456 21.6613 204.701 22.024C204.946 22.3867 205.282 22.6747 205.709 22.888C206.136 23.0907 206.621 23.192 207.165 23.192ZM205.613 20.728C205.613 20.3333 205.746 19.992 206.013 19.704C206.29 19.416 206.738 19.2187 207.357 19.112L210.173 18.648V19.288C210.173 19.8107 210.05 20.2853 209.805 20.712C209.56 21.1387 209.218 21.48 208.781 21.736C208.344 21.9813 207.832 22.104 207.245 22.104C206.765 22.104 206.37 21.9707 206.061 21.704C205.762 21.4373 205.613 21.112 205.613 20.728ZM216.965 23.096C217.061 23.096 217.189 23.0907 217.349 23.08C217.509 23.0693 217.653 23.048 217.781 23.016V21.928C217.696 21.9387 217.594 21.9493 217.477 21.96C217.36 21.9707 217.258 21.976 217.173 21.976C216.64 21.976 216.272 21.8373 216.069 21.56C215.866 21.2827 215.765 20.9307 215.765 20.504V15.624H217.653V14.424H215.765V12.44H214.565V13.16C214.565 13.5227 214.458 13.8267 214.245 14.072C214.032 14.3067 213.744 14.424 213.381 14.424H212.981V15.624H214.565V20.504C214.565 21.336 214.773 21.976 215.189 22.424C215.605 22.872 216.197 23.096 216.965 23.096ZM223.48 23.192C224.066 23.192 224.6 23.096 225.08 22.904C225.57 22.7013 225.992 22.44 226.344 22.12C226.696 21.7893 226.957 21.432 227.128 21.048L226.104 20.504C225.837 20.952 225.49 21.3253 225.064 21.624C224.637 21.9227 224.109 22.072 223.48 22.072C222.968 22.072 222.488 21.9493 222.04 21.704C221.592 21.4587 221.224 21.1173 220.936 20.68C220.658 20.232 220.509 19.6987 220.488 19.08H227.24C227.261 18.9413 227.277 18.808 227.288 18.68C227.298 18.5413 227.304 18.4187 227.304 18.312C227.304 17.8 227.213 17.304 227.032 16.824C226.85 16.3333 226.589 15.896 226.248 15.512C225.906 15.1173 225.49 14.808 225 14.584C224.52 14.3493 223.97 14.232 223.352 14.232C222.573 14.232 221.869 14.424 221.24 14.808C220.621 15.192 220.13 15.72 219.768 16.392C219.405 17.0533 219.224 17.816 219.224 18.68C219.224 19.544 219.41 20.3173 219.784 21C220.157 21.6827 220.664 22.2213 221.304 22.616C221.954 23 222.68 23.192 223.48 23.192ZM223.352 15.352C223.832 15.352 224.269 15.464 224.664 15.688C225.069 15.912 225.389 16.2213 225.624 16.616C225.869 17 225.997 17.448 226.008 17.96H220.52C220.584 17.4267 220.749 16.968 221.016 16.584C221.293 16.1893 221.634 15.8853 222.04 15.672C222.445 15.4587 222.882 15.352 223.352 15.352ZM229.468 25.08C230.534 24.824 231.068 23.992 231.068 22.584V21.24H229.788V23H230.476C230.444 23.896 230.108 24.4293 229.468 24.6V25.08ZM46.848 55.192C47.6587 55.192 48.384 55.048 49.024 54.76C49.6747 54.472 50.2187 54.104 50.656 53.656C51.104 53.1973 51.424 52.7227 51.616 52.232L50.416 51.704C50.1173 52.3973 49.6587 52.952 49.04 53.368C48.432 53.784 47.7013 53.992 46.848 53.992C45.9733 53.992 45.1947 53.7893 44.512 53.384C43.8293 52.968 43.296 52.3867 42.912 51.64C42.528 50.8933 42.336 50.0293 42.336 49.048C42.336 48.056 42.528 47.192 42.912 46.456C43.296 45.7093 43.8293 45.128 44.512 44.712C45.1947 44.296 45.9733 44.088 46.848 44.088C47.7013 44.088 48.432 44.3013 49.04 44.728C49.6587 45.144 50.1173 45.6987 50.416 46.392L51.616 45.864C51.424 45.3627 51.104 44.888 50.656 44.44C50.2187 43.9813 49.6747 43.608 49.024 43.32C48.384 43.032 47.6587 42.888 46.848 42.888C46.0053 42.888 45.232 43.0427 44.528 43.352C43.824 43.6507 43.2107 44.0773 42.688 44.632C42.176 45.1867 41.776 45.8373 41.488 46.584C41.2 47.3307 41.056 48.152 41.056 49.048C41.056 49.944 41.2 50.7653 41.488 51.512C41.776 52.2587 42.176 52.9093 42.688 53.464C43.2107 54.008 43.824 54.4347 44.528 54.744C45.232 55.0427 46.0053 55.192 46.848 55.192ZM52.676 55H54.02L55.06 52.088H60.388L61.412 55H62.756L58.404 43.08H57.028L52.676 55ZM55.476 50.888L57.716 44.584L59.94 50.888H55.476ZM67.9763 55H69.5123L72.8723 50.536C73.7896 49.3093 74.2483 48.072 74.2483 46.824C74.2483 46.056 74.0829 45.3787 73.7523 44.792C73.4216 44.1947 72.9683 43.7307 72.3923 43.4C71.8163 43.0587 71.1549 42.888 70.4083 42.888C69.6829 42.888 69.0269 43.0533 68.4403 43.384C67.8643 43.7147 67.4056 44.1627 67.0643 44.728C66.7336 45.2933 66.5683 45.9387 66.5683 46.664C66.5683 47.4 66.7283 48.056 67.0483 48.632C67.3789 49.1973 67.8216 49.6453 68.3763 49.976C68.9309 50.296 69.5549 50.456 70.2483 50.456C70.5363 50.456 70.8029 50.4293 71.0483 50.376C71.2936 50.3227 71.5176 50.232 71.7203 50.104L67.9763 55ZM70.4083 49.304C69.9176 49.304 69.4749 49.192 69.0803 48.968C68.6963 48.7333 68.3923 48.4187 68.1683 48.024C67.9549 47.6187 67.8483 47.1653 67.8483 46.664C67.8483 46.152 67.9603 45.6987 68.1843 45.304C68.4083 44.8987 68.7123 44.584 69.0963 44.36C69.4803 44.1253 69.9176 44.008 70.4083 44.008C70.8989 44.008 71.3363 44.1253 71.7203 44.36C72.1043 44.584 72.4083 44.8987 72.6323 45.304C72.8563 45.6987 72.9683 46.152 72.9683 46.664C72.9683 47.1653 72.8563 47.6187 72.6323 48.024C72.4189 48.4187 72.1203 48.7333 71.7363 48.968C71.3523 49.192 70.9096 49.304 70.4083 49.304ZM81.0751 55.192C82.0138 55.192 82.8351 54.936 83.5391 54.424C84.2431 53.912 84.7871 53.192 85.1711 52.264C85.5658 51.336 85.7631 50.2587 85.7631 49.032C85.7631 47.8053 85.5658 46.7333 85.1711 45.816C84.7765 44.888 84.2271 44.168 83.5231 43.656C82.8191 43.144 81.9978 42.888 81.0591 42.888C80.1205 42.888 79.2991 43.144 78.5951 43.656C77.8911 44.168 77.3418 44.888 76.9471 45.816C76.5525 46.7333 76.3551 47.8053 76.3551 49.032C76.3551 50.2587 76.5525 51.336 76.9471 52.264C77.3418 53.1813 77.8911 53.9013 78.5951 54.424C79.3098 54.936 80.1365 55.192 81.0751 55.192ZM81.0751 53.992C80.3925 53.992 79.7898 53.784 79.2671 53.368C78.7551 52.952 78.3551 52.3707 78.0671 51.624C77.7791 50.8773 77.6351 50.0133 77.6351 49.032C77.6351 48.04 77.7791 47.176 78.0671 46.44C78.3551 45.6933 78.7551 45.1173 79.2671 44.712C79.7791 44.296 80.3765 44.088 81.0591 44.088C81.7525 44.088 82.3551 44.296 82.8671 44.712C83.3791 45.1173 83.7791 45.6933 84.0671 46.44C84.3551 47.176 84.4991 48.04 84.4991 49.032C84.4991 50.024 84.3551 50.8933 84.0671 51.64C83.7791 52.376 83.3791 52.952 82.8671 53.368C82.3551 53.784 81.7578 53.992 81.0751 53.992ZM87.8499 55H95.5939V53.88H89.6899L92.7139 50.552C93.3005 49.912 93.7805 49.352 94.1539 48.872C94.5272 48.392 94.8045 47.944 94.9859 47.528C95.1779 47.112 95.2739 46.68 95.2739 46.232C95.2739 45.5813 95.1192 45.0053 94.8099 44.504C94.5112 44.0027 94.0952 43.608 93.5619 43.32C93.0285 43.032 92.4045 42.888 91.6899 42.888C90.6872 42.888 89.8339 43.176 89.1299 43.752C88.4259 44.3173 87.9672 45.0853 87.7539 46.056L88.9219 46.312C89.0925 45.5867 89.4179 45.0213 89.8979 44.616C90.3885 44.2107 90.9912 44.008 91.7059 44.008C92.3992 44.008 92.9539 44.2 93.3699 44.584C93.7859 44.968 93.9939 45.5173 93.9939 46.232C93.9939 46.68 93.8925 47.096 93.6899 47.48C93.4872 47.864 93.1779 48.2907 92.7619 48.76C92.3565 49.2293 91.8285 49.8213 91.1779 50.536L87.8499 54.2V55ZM101.54 55.192C102.308 55.192 102.99 55.0373 103.588 54.728C104.196 54.408 104.67 53.976 105.012 53.432C105.364 52.8773 105.54 52.2533 105.54 51.56C105.54 50.8773 105.358 50.2533 104.996 49.688C104.633 49.1227 104.137 48.7013 103.508 48.424C103.934 48.1573 104.27 47.816 104.516 47.4C104.772 46.9733 104.9 46.4933 104.9 45.96C104.9 45.3627 104.75 44.8347 104.452 44.376C104.164 43.9067 103.769 43.544 103.268 43.288C102.766 43.0213 102.19 42.888 101.54 42.888C100.9 42.888 100.324 43.0267 99.8116 43.304C99.3103 43.5707 98.9103 43.9333 98.6116 44.392C98.313 44.8507 98.1636 45.3733 98.1636 45.96C98.1636 46.4507 98.281 46.9147 98.5156 47.352C98.761 47.7893 99.113 48.1467 99.5716 48.424C98.9423 48.7013 98.4463 49.1227 98.0836 49.688C97.721 50.2533 97.5396 50.8773 97.5396 51.56C97.5396 52.2533 97.7103 52.8773 98.0516 53.432C98.4036 53.976 98.8783 54.408 99.4756 54.728C100.084 55.0373 100.772 55.192 101.54 55.192ZM101.54 47.928C100.953 47.928 100.457 47.7467 100.052 47.384C99.6463 47.0213 99.4436 46.5467 99.4436 45.96C99.4436 45.3733 99.6463 44.904 100.052 44.552C100.457 44.1893 100.953 44.008 101.54 44.008C102.126 44.008 102.617 44.1893 103.012 44.552C103.417 44.904 103.62 45.3733 103.62 45.96C103.62 46.5467 103.417 47.0213 103.012 47.384C102.617 47.7467 102.126 47.928 101.54 47.928ZM101.54 54.072C100.729 54.072 100.073 53.8427 99.5716 53.384C99.0703 52.9147 98.8196 52.3067 98.8196 51.56C98.8196 50.8027 99.0703 50.1947 99.5716 49.736C100.073 49.2773 100.729 49.048 101.54 49.048C102.361 49.048 103.017 49.2773 103.508 49.736C104.009 50.1947 104.26 50.8027 104.26 51.56C104.26 52.3067 104.009 52.9147 103.508 53.384C103.017 53.8427 102.361 54.072 101.54 54.072ZM112.435 55.192C113.373 55.192 114.195 54.936 114.899 54.424C115.603 53.912 116.147 53.192 116.531 52.264C116.925 51.336 117.123 50.2587 117.123 49.032C117.123 47.8053 116.925 46.7333 116.531 45.816C116.136 44.888 115.587 44.168 114.883 43.656C114.179 43.144 113.357 42.888 112.419 42.888C111.48 42.888 110.659 43.144 109.955 43.656C109.251 44.168 108.701 44.888 108.307 45.816C107.912 46.7333 107.715 47.8053 107.715 49.032C107.715 50.2587 107.912 51.336 108.307 52.264C108.701 53.1813 109.251 53.9013 109.955 54.424C110.669 54.936 111.496 55.192 112.435 55.192ZM112.435 53.992C111.752 53.992 111.149 53.784 110.627 53.368C110.115 52.952 109.715 52.3707 109.427 51.624C109.139 50.8773 108.995 50.0133 108.995 49.032C108.995 48.04 109.139 47.176 109.427 46.44C109.715 45.6933 110.115 45.1173 110.627 44.712C111.139 44.296 111.736 44.088 112.419 44.088C113.112 44.088 113.715 44.296 114.227 44.712C114.739 45.1173 115.139 45.6933 115.427 46.44C115.715 47.176 115.859 48.04 115.859 49.032C115.859 50.024 115.715 50.8933 115.427 51.64C115.139 52.376 114.739 52.952 114.227 53.368C113.715 53.784 113.117 53.992 112.435 53.992Z" fill="#808080"/>
<path d="M12 11C10.1441 11.0021 8.36489 11.7403 7.05259 13.0526C5.7403 14.3649 5.00212 16.1441 5 18C5 23.353 11.036 29.45 11.293 29.707L12 30.414L12.707 29.707C12.964 29.45 19 23.353 19 18C18.9979 16.1441 18.2597 14.3649 16.9474 13.0526C15.6351 11.7403 13.8559 11.0021 12 11ZM12 27.533C10.471 25.825 7 21.553 7 18C7 16.6739 7.52678 15.4021 8.46447 14.4645C9.40215 13.5268 10.6739 13 12 13C13.3261 13 14.5979 13.5268 15.5355 14.4645C16.4732 15.4021 17 16.6739 17 18C17 21.546 13.527 25.823 12 27.533Z" fill="#121212"/>
<path d="M12 15C11.4067 15 10.8266 15.1759 10.3333 15.5056C9.83994 15.8352 9.45543 16.3038 9.22836 16.8519C9.0013 17.4001 8.94189 18.0033 9.05765 18.5853C9.1734 19.1672 9.45912 19.7018 9.87868 20.1213C10.2982 20.5409 10.8328 20.8266 11.4147 20.9424C11.9967 21.0581 12.5999 20.9987 13.1481 20.7716C13.6962 20.5446 14.1648 20.1601 14.4944 19.6667C14.8241 19.1734 15 18.5933 15 18C15 17.2044 14.6839 16.4413 14.1213 15.8787C13.5587 15.3161 12.7957 15 12 15ZM12 19C11.8022 19 11.6089 18.9414 11.4444 18.8315C11.28 18.7216 11.1518 18.5654 11.0761 18.3827C11.0004 18.2 10.9806 17.9989 11.0192 17.8049C11.0578 17.6109 11.153 17.4327 11.2929 17.2929C11.4327 17.153 11.6109 17.0578 11.8049 17.0192C11.9989 16.9806 12.2 17.0004 12.3827 17.0761C12.5654 17.1518 12.7216 17.28 12.8315 17.4444C12.9414 17.6089 13 17.8022 13 18C13 18.2652 12.8946 18.5196 12.7071 18.7071C12.5196 18.8946 12.2652 19 12 19Z" fill="#121212"/>
</svg>
