<svg width="196" height="32" viewBox="0 0 196 32" fill="none" xmlns="http://www.w3.org/2000/svg">
<path d="M41.408 26.52C41.9733 26.52 42.4533 26.4027 42.848 26.168C43.2427 25.944 43.568 25.6453 43.824 25.272C44.0907 24.8987 44.3093 24.504 44.48 24.088L48.4 14.408H47.072L44.272 21.496L41.472 14.408H40.176L43.6 23L43.296 23.736C43.0293 24.3547 42.7573 24.7707 42.48 24.984C42.2027 25.208 41.8027 25.32 41.28 25.32C41.1093 25.32 40.9387 25.304 40.768 25.272C40.608 25.2507 40.4747 25.2347 40.368 25.224V26.344C40.5387 26.408 40.7093 26.4507 40.88 26.472C41.0613 26.504 41.2373 26.52 41.408 26.52ZM53.6699 23.192C54.4699 23.192 55.1952 23 55.8459 22.616C56.5072 22.232 57.0352 21.704 57.4299 21.032C57.8245 20.3493 58.0219 19.5707 58.0219 18.696C58.0219 17.832 57.8299 17.064 57.4459 16.392C57.0725 15.72 56.5552 15.192 55.8939 14.808C55.2432 14.424 54.5019 14.232 53.6699 14.232C52.8379 14.232 52.0912 14.4293 51.4299 14.824C50.7792 15.208 50.2619 15.736 49.8779 16.408C49.4939 17.08 49.3019 17.8427 49.3019 18.696C49.3019 19.56 49.4939 20.3333 49.8779 21.016C50.2725 21.688 50.8005 22.2213 51.4619 22.616C52.1232 23 52.8592 23.192 53.6699 23.192ZM53.6699 21.992C53.0939 21.992 52.5712 21.848 52.1019 21.56C51.6432 21.272 51.2752 20.8773 50.9979 20.376C50.7205 19.8747 50.5819 19.3147 50.5819 18.696C50.5819 18.0773 50.7205 17.5227 50.9979 17.032C51.2752 16.5413 51.6432 16.152 52.1019 15.864C52.5712 15.576 53.0939 15.432 53.6699 15.432C54.2459 15.432 54.7632 15.576 55.2219 15.864C55.6912 16.152 56.0592 16.5413 56.3259 17.032C56.6032 17.5227 56.7419 18.0773 56.7419 18.696C56.7419 19.3147 56.6032 19.8747 56.3259 20.376C56.0592 20.8773 55.6912 21.272 55.2219 21.56C54.7632 21.848 54.2459 21.992 53.6699 21.992ZM63.1783 23.192C63.7116 23.192 64.1916 23.08 64.6183 22.856C65.0449 22.632 65.3863 22.328 65.6423 21.944V23H66.8423V14.424H65.6423V19.528C65.6423 20.296 65.4289 20.8987 65.0023 21.336C64.5863 21.7733 64.0476 21.992 63.3863 21.992C62.7356 21.992 62.2023 21.784 61.7863 21.368C61.3703 20.9413 61.1623 20.3813 61.1623 19.688V14.424H59.9622V19.832C59.9622 20.4933 60.1009 21.08 60.3783 21.592C60.6663 22.0933 61.0556 22.488 61.5463 22.776C62.0369 23.0533 62.5809 23.192 63.1783 23.192ZM69.3101 23H70.5101V17.72C70.5101 17.016 70.6968 16.472 71.0701 16.088C71.4435 15.704 71.9395 15.512 72.5581 15.512H73.3101V14.312H72.7661C72.2435 14.312 71.7901 14.4027 71.4061 14.584C71.0328 14.7653 70.7341 15.0213 70.5101 15.352V14.424H69.3101V23ZM74.7164 23H75.9164V17.896C75.9164 17.128 76.1244 16.5253 76.5404 16.088C76.9564 15.6507 77.4737 15.432 78.0924 15.432C78.711 15.432 79.223 15.6507 79.6284 16.088C80.0337 16.5147 80.2364 17.1173 80.2364 17.896V23H81.4364V17.896C81.4364 17.128 81.6444 16.5253 82.0604 16.088C82.4764 15.6507 82.9937 15.432 83.6124 15.432C84.231 15.432 84.743 15.6507 85.1484 16.088C85.5537 16.5147 85.7564 17.1173 85.7564 17.896V23H86.9564V17.432C86.9564 16.824 86.807 16.28 86.5084 15.8C86.2204 15.3093 85.831 14.9253 85.3404 14.648C84.8604 14.3707 84.3324 14.232 83.7564 14.232C83.1804 14.232 82.647 14.3707 82.1564 14.648C81.6764 14.9253 81.3084 15.3307 81.0524 15.864C80.7857 15.3733 80.407 14.9787 79.9164 14.68C79.4257 14.3813 78.887 14.232 78.3004 14.232C77.8097 14.232 77.351 14.344 76.9244 14.568C76.5084 14.7813 76.1724 15.0853 75.9164 15.48V14.424H74.7164V23ZM91.7276 23.192C92.389 23.192 92.9863 23.0587 93.5196 22.792C94.053 22.5253 94.4583 22.184 94.7356 21.768V23H95.9356V17.112C95.9356 16.5467 95.797 16.0507 95.5196 15.624C95.253 15.1867 94.8743 14.8453 94.3836 14.6C93.9036 14.3547 93.349 14.232 92.7196 14.232C92.2396 14.232 91.7756 14.3227 91.3276 14.504C90.8796 14.6747 90.4796 14.9093 90.1276 15.208C89.7863 15.5067 89.5356 15.8373 89.3756 16.2L90.4636 16.792C90.6556 16.376 90.949 16.04 91.3436 15.784C91.7383 15.5173 92.197 15.384 92.7196 15.384C93.317 15.384 93.8023 15.544 94.1756 15.864C94.549 16.184 94.7356 16.6 94.7356 17.112V17.56L91.6316 18.072C90.6823 18.232 89.989 18.5573 89.5516 19.048C89.1143 19.5387 88.8956 20.1147 88.8956 20.776C88.8956 21.2453 89.0183 21.6613 89.2636 22.024C89.509 22.3867 89.845 22.6747 90.2716 22.888C90.6983 23.0907 91.1836 23.192 91.7276 23.192ZM90.1756 20.728C90.1756 20.3333 90.309 19.992 90.5756 19.704C90.853 19.416 91.301 19.2187 91.9196 19.112L94.7356 18.648V19.288C94.7356 19.8107 94.613 20.2853 94.3676 20.712C94.1223 21.1387 93.781 21.48 93.3436 21.736C92.9063 21.9813 92.3943 22.104 91.8076 22.104C91.3276 22.104 90.933 21.9707 90.6236 21.704C90.325 21.4373 90.1756 21.112 90.1756 20.728ZM98.4039 12.84H99.6039V11.08H98.4039V12.84ZM98.4039 23H99.6039V14.424H98.4039V23ZM102.06 23H103.26V10.888H102.06V23ZM112.196 24.12C113.391 24.12 114.442 23.864 115.348 23.352L114.836 22.392C114.09 22.7973 113.22 23 112.228 23C111.407 23 110.66 22.856 109.988 22.568C109.316 22.28 108.735 21.8853 108.244 21.384C107.764 20.872 107.391 20.2853 107.124 19.624C106.868 18.952 106.74 18.232 106.74 17.464C106.74 16.6747 106.874 15.9493 107.14 15.288C107.418 14.6267 107.802 14.0507 108.292 13.56C108.783 13.0693 109.359 12.6907 110.02 12.424C110.692 12.1467 111.418 12.008 112.196 12.008C112.996 12.008 113.727 12.1467 114.388 12.424C115.05 12.7013 115.62 13.0853 116.1 13.576C116.58 14.0667 116.954 14.6427 117.22 15.304C117.487 15.9653 117.62 16.68 117.62 17.448C117.62 18.1947 117.492 18.7547 117.236 19.128C116.991 19.5013 116.644 19.688 116.196 19.688C115.898 19.688 115.658 19.5973 115.476 19.416C115.306 19.2347 115.22 18.9467 115.22 18.552V14.136H114.18V15.032C113.914 14.7013 113.572 14.4453 113.156 14.264C112.751 14.072 112.308 13.976 111.828 13.976C111.21 13.976 110.65 14.1307 110.148 14.44C109.658 14.7387 109.268 15.144 108.98 15.656C108.692 16.168 108.548 16.7493 108.548 17.4C108.548 18.0507 108.692 18.632 108.98 19.144C109.268 19.656 109.658 20.0613 110.148 20.36C110.65 20.6587 111.21 20.808 111.828 20.808C112.319 20.808 112.767 20.712 113.172 20.52C113.588 20.328 113.924 20.0453 114.18 19.672C114.351 20.024 114.618 20.3013 114.98 20.504C115.354 20.7067 115.754 20.808 116.18 20.808C117.012 20.808 117.658 20.4933 118.116 19.864C118.586 19.2347 118.82 18.4187 118.82 17.416C118.82 16.5627 118.655 15.7467 118.324 14.968C118.004 14.1893 117.546 13.496 116.948 12.888C116.362 12.2693 115.663 11.784 114.852 11.432C114.042 11.0693 113.156 10.888 112.196 10.888C111.268 10.888 110.399 11.0587 109.588 11.4C108.778 11.7307 108.068 12.1947 107.46 12.792C106.863 13.3893 106.394 14.088 106.052 14.888C105.711 15.688 105.54 16.552 105.54 17.48C105.54 18.408 105.706 19.2773 106.036 20.088C106.378 20.888 106.852 21.592 107.46 22.2C108.068 22.808 108.772 23.2773 109.572 23.608C110.383 23.9493 111.258 24.12 112.196 24.12ZM111.876 19.688C111.471 19.688 111.108 19.5867 110.788 19.384C110.468 19.1813 110.212 18.9093 110.02 18.568C109.839 18.216 109.748 17.8267 109.748 17.4C109.748 16.7387 109.946 16.1947 110.34 15.768C110.746 15.3413 111.258 15.128 111.876 15.128C112.495 15.128 113.007 15.3413 113.412 15.768C113.818 16.184 114.02 16.7227 114.02 17.384C114.02 17.8213 113.924 18.216 113.732 18.568C113.551 18.9093 113.3 19.1813 112.98 19.384C112.66 19.5867 112.292 19.688 111.876 19.688ZM120.576 23H121.776V17.896C121.776 17.128 121.989 16.5253 122.416 16.088C122.853 15.6507 123.392 15.432 124.032 15.432C124.672 15.432 125.2 15.6507 125.616 16.088C126.042 16.5147 126.256 17.1173 126.256 17.896V23H127.456V17.432C127.456 16.824 127.312 16.28 127.024 15.8C126.746 15.3093 126.362 14.9253 125.872 14.648C125.392 14.3707 124.848 14.232 124.24 14.232C123.706 14.232 123.226 14.344 122.8 14.568C122.373 14.792 122.032 15.096 121.776 15.48V10.888H120.576V23ZM133.652 23.192C134.238 23.192 134.772 23.096 135.252 22.904C135.742 22.7013 136.164 22.44 136.516 22.12C136.868 21.7893 137.129 21.432 137.3 21.048L136.276 20.504C136.009 20.952 135.662 21.3253 135.236 21.624C134.809 21.9227 134.281 22.072 133.652 22.072C133.14 22.072 132.66 21.9493 132.212 21.704C131.764 21.4587 131.396 21.1173 131.108 20.68C130.83 20.232 130.681 19.6987 130.66 19.08H137.412C137.433 18.9413 137.449 18.808 137.46 18.68C137.47 18.5413 137.476 18.4187 137.476 18.312C137.476 17.8 137.385 17.304 137.204 16.824C137.022 16.3333 136.761 15.896 136.42 15.512C136.078 15.1173 135.662 14.808 135.172 14.584C134.692 14.3493 134.142 14.232 133.524 14.232C132.745 14.232 132.041 14.424 131.412 14.808C130.793 15.192 130.302 15.72 129.94 16.392C129.577 17.0533 129.396 17.816 129.396 18.68C129.396 19.544 129.582 20.3173 129.956 21C130.329 21.6827 130.836 22.2213 131.476 22.616C132.126 23 132.852 23.192 133.652 23.192ZM133.524 15.352C134.004 15.352 134.441 15.464 134.836 15.688C135.241 15.912 135.561 16.2213 135.796 16.616C136.041 17 136.169 17.448 136.18 17.96H130.692C130.756 17.4267 130.921 16.968 131.188 16.584C131.465 16.1893 131.806 15.8853 132.212 15.672C132.617 15.4587 133.054 15.352 133.524 15.352ZM139.591 23H140.791V10.888H139.591V23ZM143.248 23H144.448V10.888H143.248V23ZM150.92 23.192C151.72 23.192 152.445 23 153.096 22.616C153.757 22.232 154.285 21.704 154.68 21.032C155.075 20.3493 155.272 19.5707 155.272 18.696C155.272 17.832 155.08 17.064 154.696 16.392C154.323 15.72 153.805 15.192 153.144 14.808C152.493 14.424 151.752 14.232 150.92 14.232C150.088 14.232 149.341 14.4293 148.68 14.824C148.029 15.208 147.512 15.736 147.128 16.408C146.744 17.08 146.552 17.8427 146.552 18.696C146.552 19.56 146.744 20.3333 147.128 21.016C147.523 21.688 148.051 22.2213 148.712 22.616C149.373 23 150.109 23.192 150.92 23.192ZM150.92 21.992C150.344 21.992 149.821 21.848 149.352 21.56C148.893 21.272 148.525 20.8773 148.248 20.376C147.971 19.8747 147.832 19.3147 147.832 18.696C147.832 18.0773 147.971 17.5227 148.248 17.032C148.525 16.5413 148.893 16.152 149.352 15.864C149.821 15.576 150.344 15.432 150.92 15.432C151.496 15.432 152.013 15.576 152.472 15.864C152.941 16.152 153.309 16.5413 153.576 17.032C153.853 17.5227 153.992 18.0773 153.992 18.696C153.992 19.3147 153.853 19.8747 153.576 20.376C153.309 20.8773 152.941 21.272 152.472 21.56C152.013 21.848 151.496 21.992 150.92 21.992ZM157.804 23H159.084V21.24H157.804V23ZM165.886 23.192C166.42 23.192 166.921 23.096 167.39 22.904C167.86 22.712 168.276 22.4507 168.638 22.12C169.001 21.7893 169.273 21.416 169.454 21L168.366 20.408C168.142 20.888 167.812 21.272 167.374 21.56C166.948 21.848 166.452 21.992 165.886 21.992C165.321 21.992 164.809 21.848 164.35 21.56C163.902 21.272 163.545 20.8827 163.278 20.392C163.022 19.8907 162.894 19.3307 162.894 18.712C162.894 18.0827 163.022 17.5227 163.278 17.032C163.545 16.5307 163.902 16.1413 164.35 15.864C164.809 15.576 165.321 15.432 165.886 15.432C166.452 15.432 166.953 15.576 167.39 15.864C167.828 16.152 168.153 16.5253 168.366 16.984L169.454 16.424C169.273 15.9973 169.001 15.624 168.638 15.304C168.276 14.9733 167.86 14.712 167.39 14.52C166.921 14.328 166.42 14.232 165.886 14.232C165.044 14.232 164.302 14.4293 163.662 14.824C163.022 15.208 162.521 15.736 162.158 16.408C161.796 17.08 161.614 17.8427 161.614 18.696C161.614 19.5493 161.796 20.3173 162.158 21C162.521 21.672 163.022 22.2053 163.662 22.6C164.302 22.9947 165.044 23.192 165.886 23.192ZM175.576 23.192C176.376 23.192 177.101 23 177.752 22.616C178.413 22.232 178.941 21.704 179.336 21.032C179.731 20.3493 179.928 19.5707 179.928 18.696C179.928 17.832 179.736 17.064 179.352 16.392C178.979 15.72 178.461 15.192 177.8 14.808C177.149 14.424 176.408 14.232 175.576 14.232C174.744 14.232 173.997 14.4293 173.336 14.824C172.685 15.208 172.168 15.736 171.784 16.408C171.4 17.08 171.208 17.8427 171.208 18.696C171.208 19.56 171.4 20.3333 171.784 21.016C172.179 21.688 172.707 22.2213 173.368 22.616C174.029 23 174.765 23.192 175.576 23.192ZM175.576 21.992C175 21.992 174.477 21.848 174.008 21.56C173.549 21.272 173.181 20.8773 172.904 20.376C172.627 19.8747 172.488 19.3147 172.488 18.696C172.488 18.0773 172.627 17.5227 172.904 17.032C173.181 16.5413 173.549 16.152 174.008 15.864C174.477 15.576 175 15.432 175.576 15.432C176.152 15.432 176.669 15.576 177.128 15.864C177.597 16.152 177.965 16.5413 178.232 17.032C178.509 17.5227 178.648 18.0773 178.648 18.696C178.648 19.3147 178.509 19.8747 178.232 20.376C177.965 20.8773 177.597 21.272 177.128 21.56C176.669 21.848 176.152 21.992 175.576 21.992ZM182.045 23H183.245V17.896C183.245 17.128 183.453 16.5253 183.869 16.088C184.285 15.6507 184.802 15.432 185.421 15.432C186.039 15.432 186.551 15.6507 186.957 16.088C187.362 16.5147 187.565 17.1173 187.565 17.896V23H188.765V17.896C188.765 17.128 188.973 16.5253 189.389 16.088C189.805 15.6507 190.322 15.432 190.941 15.432C191.559 15.432 192.071 15.6507 192.477 16.088C192.882 16.5147 193.085 17.1173 193.085 17.896V23H194.285V17.432C194.285 16.824 194.135 16.28 193.837 15.8C193.549 15.3093 193.159 14.9253 192.669 14.648C192.189 14.3707 191.661 14.232 191.085 14.232C190.509 14.232 189.975 14.3707 189.485 14.648C189.005 14.9253 188.637 15.3307 188.381 15.864C188.114 15.3733 187.735 14.9787 187.245 14.68C186.754 14.3813 186.215 14.232 185.629 14.232C185.138 14.232 184.679 14.344 184.253 14.568C183.837 14.7813 183.501 15.0853 183.245 15.48V14.424H182.045V23Z" fill="#828282"/>
<path d="M2 8V24H22V8H2ZM9.981 17.7L12 19.267L14.019 17.7L19.4 22H4.6L9.981 17.7ZM4 19.919V13.044L8.357 16.433L4 19.919ZM15.643 16.433L20 13.045V19.919L15.643 16.433ZM20 10V10.511L12 16.733L4 10.511V10H20Z" fill="white"/>
</svg>
