<svg width="178" height="32" viewBox="0 0 178 32" fill="none" xmlns="http://www.w3.org/2000/svg">
<path d="M44.256 23H45.456V19.592H48.848V18.392H45.456V15H44.256V18.392H40.848V19.592H44.256V23ZM52.5991 23H53.8791V11.08H50.3591V12.2H52.5991V23ZM63.0634 23.192C63.8527 23.192 64.5514 23.0267 65.1594 22.696C65.7674 22.3547 66.242 21.9013 66.5834 21.336C66.9247 20.76 67.0954 20.12 67.0954 19.416C67.0954 18.744 66.9514 18.152 66.6634 17.64C66.3754 17.1173 65.9754 16.7013 65.4634 16.392C64.962 16.072 64.3807 15.8747 63.7194 15.8L66.5834 12.2V11.08H59.6554V12.2H65.1434L61.9274 16.28L62.1834 16.84C62.29 16.8187 62.4234 16.8027 62.5834 16.792C62.754 16.7813 62.9087 16.776 63.0474 16.776C63.8367 16.776 64.4927 17.0053 65.0154 17.464C65.5487 17.912 65.8154 18.5627 65.8154 19.416C65.8154 20.2587 65.554 20.9147 65.0314 21.384C64.5194 21.8427 63.8634 22.072 63.0634 22.072C62.3914 22.072 61.794 21.896 61.2714 21.544C60.7487 21.1813 60.3647 20.6907 60.1194 20.072L59.0954 20.552C59.4047 21.3733 59.9114 22.0187 60.6154 22.488C61.3194 22.9573 62.1354 23.192 63.0634 23.192ZM73.1334 23.192C73.9014 23.192 74.584 23.0373 75.1814 22.728C75.7894 22.408 76.264 21.976 76.6054 21.432C76.9574 20.8773 77.1334 20.2533 77.1334 19.56C77.1334 18.8773 76.952 18.2533 76.5894 17.688C76.2267 17.1227 75.7307 16.7013 75.1014 16.424C75.528 16.1573 75.864 15.816 76.1094 15.4C76.3654 14.9733 76.4934 14.4933 76.4934 13.96C76.4934 13.3627 76.344 12.8347 76.0454 12.376C75.7574 11.9067 75.3627 11.544 74.8614 11.288C74.36 11.0213 73.784 10.888 73.1334 10.888C72.4934 10.888 71.9174 11.0267 71.4054 11.304C70.904 11.5707 70.504 11.9333 70.2054 12.392C69.9067 12.8507 69.7574 13.3733 69.7574 13.96C69.7574 14.4507 69.8747 14.9147 70.1094 15.352C70.3547 15.7893 70.7067 16.1467 71.1654 16.424C70.536 16.7013 70.04 17.1227 69.6774 17.688C69.3147 18.2533 69.1334 18.8773 69.1334 19.56C69.1334 20.2533 69.304 20.8773 69.6454 21.432C69.9974 21.976 70.472 22.408 71.0694 22.728C71.6774 23.0373 72.3654 23.192 73.1334 23.192ZM73.1334 15.928C72.5467 15.928 72.0507 15.7467 71.6454 15.384C71.24 15.0213 71.0374 14.5467 71.0374 13.96C71.0374 13.3733 71.24 12.904 71.6454 12.552C72.0507 12.1893 72.5467 12.008 73.1334 12.008C73.72 12.008 74.2107 12.1893 74.6054 12.552C75.0107 12.904 75.2134 13.3733 75.2134 13.96C75.2134 14.5467 75.0107 15.0213 74.6054 15.384C74.2107 15.7467 73.72 15.928 73.1334 15.928ZM73.1334 22.072C72.3227 22.072 71.6667 21.8427 71.1654 21.384C70.664 20.9147 70.4134 20.3067 70.4134 19.56C70.4134 18.8027 70.664 18.1947 71.1654 17.736C71.6667 17.2773 72.3227 17.048 73.1334 17.048C73.9547 17.048 74.6107 17.2773 75.1014 17.736C75.6027 18.1947 75.8534 18.8027 75.8534 19.56C75.8534 20.3067 75.6027 20.9147 75.1014 21.384C74.6107 21.8427 73.9547 22.072 73.1334 22.072ZM82.9563 23.192C83.6923 23.192 84.3483 23.0267 84.9243 22.696C85.5003 22.3653 85.9536 21.9173 86.2843 21.352C86.6256 20.776 86.7963 20.1307 86.7963 19.416C86.7963 18.6693 86.6309 18.0133 86.3003 17.448C85.9803 16.8827 85.5429 16.44 84.9883 16.12C84.4336 15.7893 83.8096 15.624 83.1163 15.624C82.8283 15.624 82.5616 15.6507 82.3163 15.704C82.0709 15.7573 81.8469 15.848 81.6443 15.976L85.3883 11.08H83.8523L80.4923 15.544C79.5749 16.7707 79.1163 18.008 79.1163 19.256C79.1163 20.024 79.2816 20.7067 79.6123 21.304C79.9429 21.8907 80.3963 22.3547 80.9723 22.696C81.5483 23.0267 82.2096 23.192 82.9563 23.192ZM82.9563 22.072C82.4656 22.072 82.0283 21.96 81.6443 21.736C81.2603 21.5013 80.9563 21.1813 80.7323 20.776C80.5083 20.3707 80.3963 19.9173 80.3963 19.416C80.3963 18.904 80.5029 18.4507 80.7163 18.056C80.9403 17.6613 81.2443 17.352 81.6283 17.128C82.0229 16.8933 82.4656 16.776 82.9563 16.776C83.4576 16.776 83.9003 16.8933 84.2843 17.128C84.6683 17.352 84.9669 17.6613 85.1803 18.056C85.4043 18.4507 85.5163 18.904 85.5163 19.416C85.5163 19.9173 85.4043 20.3707 85.1803 20.776C84.9563 21.1813 84.6523 21.5013 84.2683 21.736C83.8843 21.96 83.4469 22.072 82.9563 22.072ZM89.4631 19.592H96.6631V18.392H89.4631V19.592ZM103.222 23.192C103.958 23.192 104.614 23.0267 105.19 22.696C105.766 22.3653 106.219 21.9173 106.55 21.352C106.891 20.776 107.062 20.1307 107.062 19.416C107.062 18.6693 106.897 18.0133 106.566 17.448C106.246 16.8827 105.809 16.44 105.254 16.12C104.699 15.7893 104.075 15.624 103.382 15.624C103.094 15.624 102.827 15.6507 102.582 15.704C102.337 15.7573 102.113 15.848 101.91 15.976L105.654 11.08H104.118L100.758 15.544C99.8405 16.7707 99.3819 18.008 99.3819 19.256C99.3819 20.024 99.5472 20.7067 99.8779 21.304C100.209 21.8907 100.662 22.3547 101.238 22.696C101.814 23.0267 102.475 23.192 103.222 23.192ZM103.222 22.072C102.731 22.072 102.294 21.96 101.91 21.736C101.526 21.5013 101.222 21.1813 100.998 20.776C100.774 20.3707 100.662 19.9173 100.662 19.416C100.662 18.904 100.769 18.4507 100.982 18.056C101.206 17.6613 101.51 17.352 101.894 17.128C102.289 16.8933 102.731 16.776 103.222 16.776C103.723 16.776 104.166 16.8933 104.55 17.128C104.934 17.352 105.233 17.6613 105.446 18.056C105.67 18.4507 105.782 18.904 105.782 19.416C105.782 19.9173 105.67 20.3707 105.446 20.776C105.222 21.1813 104.918 21.5013 104.534 21.736C104.15 21.96 103.713 22.072 103.222 22.072ZM112.993 23.192C113.761 23.192 114.443 23.0373 115.041 22.728C115.649 22.408 116.123 21.976 116.465 21.432C116.817 20.8773 116.993 20.2533 116.993 19.56C116.993 18.8773 116.811 18.2533 116.449 17.688C116.086 17.1227 115.59 16.7013 114.961 16.424C115.387 16.1573 115.723 15.816 115.969 15.4C116.225 14.9733 116.353 14.4933 116.353 13.96C116.353 13.3627 116.203 12.8347 115.905 12.376C115.617 11.9067 115.222 11.544 114.721 11.288C114.219 11.0213 113.643 10.888 112.993 10.888C112.353 10.888 111.777 11.0267 111.265 11.304C110.763 11.5707 110.363 11.9333 110.065 12.392C109.766 12.8507 109.617 13.3733 109.617 13.96C109.617 14.4507 109.734 14.9147 109.969 15.352C110.214 15.7893 110.566 16.1467 111.025 16.424C110.395 16.7013 109.899 17.1227 109.537 17.688C109.174 18.2533 108.993 18.8773 108.993 19.56C108.993 20.2533 109.163 20.8773 109.505 21.432C109.857 21.976 110.331 22.408 110.929 22.728C111.537 23.0373 112.225 23.192 112.993 23.192ZM112.993 15.928C112.406 15.928 111.91 15.7467 111.505 15.384C111.099 15.0213 110.897 14.5467 110.897 13.96C110.897 13.3733 111.099 12.904 111.505 12.552C111.91 12.1893 112.406 12.008 112.993 12.008C113.579 12.008 114.07 12.1893 114.465 12.552C114.87 12.904 115.073 13.3733 115.073 13.96C115.073 14.5467 114.87 15.0213 114.465 15.384C114.07 15.7467 113.579 15.928 112.993 15.928ZM112.993 22.072C112.182 22.072 111.526 21.8427 111.025 21.384C110.523 20.9147 110.273 20.3067 110.273 19.56C110.273 18.8027 110.523 18.1947 111.025 17.736C111.526 17.2773 112.182 17.048 112.993 17.048C113.814 17.048 114.47 17.2773 114.961 17.736C115.462 18.1947 115.713 18.8027 115.713 19.56C115.713 20.3067 115.462 20.9147 114.961 21.384C114.47 21.8427 113.814 22.072 112.993 22.072ZM123.04 23.192C123.808 23.192 124.49 23.0373 125.088 22.728C125.696 22.408 126.17 21.976 126.512 21.432C126.864 20.8773 127.04 20.2533 127.04 19.56C127.04 18.8773 126.858 18.2533 126.496 17.688C126.133 17.1227 125.637 16.7013 125.008 16.424C125.434 16.1573 125.77 15.816 126.016 15.4C126.272 14.9733 126.4 14.4933 126.4 13.96C126.4 13.3627 126.25 12.8347 125.952 12.376C125.664 11.9067 125.269 11.544 124.768 11.288C124.266 11.0213 123.69 10.888 123.04 10.888C122.4 10.888 121.824 11.0267 121.312 11.304C120.81 11.5707 120.41 11.9333 120.112 12.392C119.813 12.8507 119.664 13.3733 119.664 13.96C119.664 14.4507 119.781 14.9147 120.016 15.352C120.261 15.7893 120.613 16.1467 121.072 16.424C120.442 16.7013 119.946 17.1227 119.584 17.688C119.221 18.2533 119.04 18.8773 119.04 19.56C119.04 20.2533 119.21 20.8773 119.552 21.432C119.904 21.976 120.378 22.408 120.976 22.728C121.584 23.0373 122.272 23.192 123.04 23.192ZM123.04 15.928C122.453 15.928 121.957 15.7467 121.552 15.384C121.146 15.0213 120.944 14.5467 120.944 13.96C120.944 13.3733 121.146 12.904 121.552 12.552C121.957 12.1893 122.453 12.008 123.04 12.008C123.626 12.008 124.117 12.1893 124.512 12.552C124.917 12.904 125.12 13.3733 125.12 13.96C125.12 14.5467 124.917 15.0213 124.512 15.384C124.117 15.7467 123.626 15.928 123.04 15.928ZM123.04 22.072C122.229 22.072 121.573 21.8427 121.072 21.384C120.57 20.9147 120.32 20.3067 120.32 19.56C120.32 18.8027 120.57 18.1947 121.072 17.736C121.573 17.2773 122.229 17.048 123.04 17.048C123.861 17.048 124.517 17.2773 125.008 17.736C125.509 18.1947 125.76 18.8027 125.76 19.56C125.76 20.3067 125.509 20.9147 125.008 21.384C124.517 21.8427 123.861 22.072 123.04 22.072ZM129.823 19.592H137.023V18.392H129.823V19.592ZM143.485 23.192C144.275 23.192 144.973 23.0267 145.581 22.696C146.189 22.3547 146.664 21.9013 147.005 21.336C147.347 20.76 147.517 20.12 147.517 19.416C147.517 18.744 147.373 18.152 147.085 17.64C146.797 17.1173 146.397 16.7013 145.885 16.392C145.384 16.072 144.803 15.8747 144.141 15.8L147.005 12.2V11.08H140.077V12.2H145.565L142.349 16.28L142.605 16.84C142.712 16.8187 142.845 16.8027 143.005 16.792C143.176 16.7813 143.331 16.776 143.469 16.776C144.259 16.776 144.915 17.0053 145.437 17.464C145.971 17.912 146.237 18.5627 146.237 19.416C146.237 20.2587 145.976 20.9147 145.453 21.384C144.941 21.8427 144.285 22.072 143.485 22.072C142.813 22.072 142.216 21.896 141.693 21.544C141.171 21.1813 140.787 20.6907 140.541 20.072L139.517 20.552C139.827 21.3733 140.333 22.0187 141.037 22.488C141.741 22.9573 142.557 23.192 143.485 23.192ZM149.459 23H157.203V21.88H151.299L154.323 18.552C154.91 17.912 155.39 17.352 155.763 16.872C156.137 16.392 156.414 15.944 156.595 15.528C156.787 15.112 156.883 14.68 156.883 14.232C156.883 13.5813 156.729 13.0053 156.419 12.504C156.121 12.0027 155.705 11.608 155.171 11.32C154.638 11.032 154.014 10.888 153.299 10.888C152.297 10.888 151.443 11.176 150.739 11.752C150.035 12.3173 149.577 13.0853 149.363 14.056L150.531 14.312C150.702 13.5867 151.027 13.0213 151.507 12.616C151.998 12.2107 152.601 12.008 153.315 12.008C154.009 12.008 154.563 12.2 154.979 12.584C155.395 12.968 155.603 13.5173 155.603 14.232C155.603 14.68 155.502 15.096 155.299 15.48C155.097 15.864 154.787 16.2907 154.371 16.76C153.966 17.2293 153.438 17.8213 152.787 18.536L149.459 22.2V23ZM160.445 23H161.981L165.341 18.536C166.258 17.3093 166.717 16.072 166.717 14.824C166.717 14.056 166.552 13.3787 166.221 12.792C165.89 12.1947 165.437 11.7307 164.861 11.4C164.285 11.0587 163.624 10.888 162.877 10.888C162.152 10.888 161.496 11.0533 160.909 11.384C160.333 11.7147 159.874 12.1627 159.533 12.728C159.202 13.2933 159.037 13.9387 159.037 14.664C159.037 15.4 159.197 16.056 159.517 16.632C159.848 17.1973 160.29 17.6453 160.845 17.976C161.4 18.296 162.024 18.456 162.717 18.456C163.005 18.456 163.272 18.4293 163.517 18.376C163.762 18.3227 163.986 18.232 164.189 18.104L160.445 23ZM162.877 17.304C162.386 17.304 161.944 17.192 161.549 16.968C161.165 16.7333 160.861 16.4187 160.637 16.024C160.424 15.6187 160.317 15.1653 160.317 14.664C160.317 14.152 160.429 13.6987 160.653 13.304C160.877 12.8987 161.181 12.584 161.565 12.36C161.949 12.1253 162.386 12.008 162.877 12.008C163.368 12.008 163.805 12.1253 164.189 12.36C164.573 12.584 164.877 12.8987 165.101 13.304C165.325 13.6987 165.437 14.152 165.437 14.664C165.437 15.1653 165.325 15.6187 165.101 16.024C164.888 16.4187 164.589 16.7333 164.205 16.968C163.821 17.192 163.378 17.304 162.877 17.304ZM172.504 23.192C173.272 23.192 173.955 23.0213 174.552 22.68C175.16 22.3387 175.635 21.8747 175.976 21.288C176.328 20.6907 176.504 20.024 176.504 19.288C176.504 18.5627 176.333 17.9067 175.992 17.32C175.661 16.7227 175.203 16.248 174.616 15.896C174.029 15.5333 173.352 15.352 172.584 15.352C172.189 15.352 171.8 15.4107 171.416 15.528C171.032 15.6347 170.675 15.8053 170.344 16.04L170.888 12.184H176.024V11.064H169.992L169.096 17.544L170.104 17.736C170.307 17.3947 170.627 17.1067 171.064 16.872C171.512 16.6267 171.997 16.504 172.52 16.504C173.032 16.504 173.491 16.6267 173.896 16.872C174.301 17.1067 174.621 17.432 174.856 17.848C175.101 18.264 175.224 18.744 175.224 19.288C175.224 19.8107 175.107 20.2853 174.872 20.712C174.637 21.128 174.312 21.4587 173.896 21.704C173.491 21.9493 173.027 22.072 172.504 22.072C171.853 22.072 171.245 21.896 170.68 21.544C170.125 21.1813 169.725 20.6907 169.48 20.072L168.504 20.552C168.813 21.3627 169.325 22.008 170.04 22.488C170.755 22.9573 171.576 23.192 172.504 23.192Z" fill="#828282"/>
<path d="M22.191 19.489L22.153 18.662L15.67 17.736L14.355 20.31C12.9666 19.5283 11.6974 18.5517 10.586 17.41C9.43159 16.3004 8.44792 15.0259 7.667 13.628L10.467 12.228L7.667 5.70801L6.907 5.81801C5.61986 5.99531 4.42738 6.59296 3.515 7.51801C0.342 10.687 1.585 16.9 6.343 21.657C9.325 24.638 12.876 26.239 15.894 26.238C16.7376 26.2674 17.5784 26.1274 18.367 25.8263C19.1555 25.5252 19.8757 25.0691 20.485 24.485C21.1074 23.8208 21.5813 23.0319 21.8755 22.1705C22.1696 21.3092 22.2772 20.3951 22.191 19.489ZM19.071 23.071C16.771 25.371 11.59 24.071 7.757 20.243C3.924 16.415 2.629 11.229 4.929 8.92901C5.35774 8.49451 5.88248 8.16672 6.461 7.97201L7.881 11.285L6.774 11.838C6.5342 11.9581 6.32087 12.125 6.14655 12.3288C5.97224 12.5326 5.84048 12.7693 5.75904 13.0248C5.67759 13.2803 5.6481 13.5495 5.67231 13.8166C5.69652 14.0837 5.77394 14.3433 5.9 14.58C6.77535 16.1482 7.87607 17.5794 9.167 18.828C10.4159 20.1045 11.8414 21.1952 13.4 22.067C13.6402 22.1974 13.9041 22.2785 14.1761 22.3054C14.4482 22.3324 14.7228 22.3047 14.984 22.224C15.2394 22.1445 15.476 22.014 15.6796 21.8404C15.8831 21.6668 16.0492 21.4537 16.168 21.214L16.815 19.92L20.182 20.401C20.1436 21.3954 19.7493 22.3429 19.071 23.071Z" fill="white"/>
</svg>
